<svg width="40" height="40" viewBox="0 0 40 40" fill="none" xmlns="http://www.w3.org/2000/svg">
<path d="M33.3333 20C33.3333 23.5362 31.9286 26.9276 29.4281 29.4281C26.9276 31.9286 23.5362 33.3333 20 33.3333C16.4638 33.3333 13.0724 31.9286 10.5719 29.4281C8.0714 26.9276 6.66665 23.5362 6.66665 20C6.66665 16.4638 8.0714 13.0724 10.5719 10.5719C13.0724 8.07142 16.4638 6.66666 20 6.66666C21.2666 6.66666 22.5 6.84999 23.6666 7.18333L26.2833 4.56666C24.2905 3.74594 22.1552 3.32681 20 3.33333C17.8113 3.33333 15.644 3.76442 13.6219 4.602C11.5998 5.43958 9.76251 6.66724 8.21487 8.21488C5.08926 11.3405 3.33331 15.5797 3.33331 20C3.33331 24.4203 5.08926 28.6595 8.21487 31.7851C9.76251 33.3328 11.5998 34.5604 13.6219 35.398C15.644 36.2356 17.8113 36.6667 20 36.6667C24.4203 36.6667 28.6595 34.9107 31.7851 31.7851C34.9107 28.6595 36.6666 24.4203 36.6666 20H33.3333ZM13.1833 16.8L10.8333 19.1667L18.3333 26.6667L35 9.99999L32.65 7.63333L18.3333 21.95L13.1833 16.8Z" fill="#323232"/>
</svg>
