<svg width="40" height="40" viewBox="0 0 40 40" fill="none" xmlns="http://www.w3.org/2000/svg">
<path d="M23.3334 5.44825C23.3334 4.27992 22.3867 3.33325 21.2184 3.33325H18.7834C17.6134 3.33325 16.6667 4.27992 16.6667 5.44825C16.6667 6.41159 16.0067 7.23825 15.1084 7.59159C14.9667 7.64825 14.825 7.70825 14.6867 7.76825C13.8017 8.15159 12.75 8.03492 12.0667 7.35325C11.6701 6.95694 11.1324 6.73431 10.5717 6.73431C10.011 6.73431 9.4733 6.95694 9.07671 7.35325L7.35337 9.07659C6.95706 9.47318 6.73444 10.0109 6.73444 10.5716C6.73444 11.1323 6.95706 11.67 7.35337 12.0666V12.0666C8.03671 12.7499 8.15337 13.7999 7.76671 14.6866C7.70596 14.8261 7.64761 14.9667 7.59171 15.1083C7.23837 16.0066 6.41171 16.6666 5.44837 16.6666C4.28004 16.6666 3.33337 17.6133 3.33337 18.7816V21.2183C3.33337 22.3866 4.28004 23.3333 5.44837 23.3333C6.41171 23.3333 7.23837 23.9933 7.59171 24.8916C7.64837 25.0333 7.70837 25.1749 7.76671 25.3133C8.15171 26.1983 8.03504 27.2499 7.35337 27.9333C6.95706 28.3298 6.73444 28.8676 6.73444 29.4283C6.73444 29.9889 6.95706 30.5267 7.35337 30.9233L9.07671 32.6466C9.4733 33.0429 10.011 33.2655 10.5717 33.2655C11.1324 33.2655 11.6701 33.0429 12.0667 32.6466C12.75 31.9633 13.8 31.8466 14.6867 32.2316C14.825 32.2933 14.9667 32.3516 15.1084 32.4083C16.0067 32.7616 16.6667 33.5883 16.6667 34.5516C16.6667 35.7199 17.6134 36.6666 18.7817 36.6666H21.2184C22.3867 36.6666 23.3334 35.7199 23.3334 34.5516C23.3334 33.5883 23.9934 32.7616 24.8917 32.4066C25.0334 32.3516 25.175 32.2933 25.3134 32.2333C26.1984 31.8466 27.25 31.9649 27.9317 32.6466C28.1281 32.8431 28.3613 32.9989 28.618 33.1053C28.8746 33.2116 29.1497 33.2664 29.4275 33.2664C29.7054 33.2664 29.9805 33.2116 30.2371 33.1053C30.4938 32.9989 30.727 32.8431 30.9234 32.6466L32.6467 30.9233C33.043 30.5267 33.2656 29.9889 33.2656 29.4283C33.2656 28.8676 33.043 28.3298 32.6467 27.9333V27.9333C31.9634 27.2499 31.8467 26.1999 32.2317 25.3133C32.2934 25.1749 32.3517 25.0333 32.4084 24.8916C32.7617 23.9933 33.5884 23.3333 34.5517 23.3333C35.72 23.3333 36.6667 22.3866 36.6667 21.2183V18.7833C36.6667 17.6149 35.72 16.6683 34.5517 16.6683C33.5884 16.6683 32.7617 16.0083 32.4067 15.1099C32.3509 14.9683 32.2925 14.8278 32.2317 14.6883C31.8484 13.8033 31.965 12.7516 32.6467 12.0683C33.043 11.6717 33.2656 11.1339 33.2656 10.5733C33.2656 10.0126 33.043 9.47485 32.6467 9.07825L30.9234 7.35492C30.5268 6.9586 29.989 6.73598 29.4284 6.73598C28.8677 6.73598 28.33 6.9586 27.9334 7.35492V7.35492C27.25 8.03825 26.2 8.15492 25.3134 7.76992C25.1739 7.7086 25.0333 7.6497 24.8917 7.59325C23.9934 7.23825 23.3334 6.41159 23.3334 5.44992V5.44825Z" stroke="#323232" stroke-width="2"/>
<path d="M26.6667 19.9999C26.6667 21.768 25.9643 23.4637 24.7141 24.714C23.4638 25.9642 21.7682 26.6666 20 26.6666C18.2319 26.6666 16.5362 25.9642 15.286 24.714C14.0358 23.4637 13.3334 21.768 13.3334 19.9999C13.3334 18.2318 14.0358 16.5361 15.286 15.2859C16.5362 14.0356 18.2319 13.3333 20 13.3333C21.7682 13.3333 23.4638 14.0356 24.7141 15.2859C25.9643 16.5361 26.6667 18.2318 26.6667 19.9999V19.9999Z" stroke="#323232" stroke-width="2"/>
</svg>
