<svg width="40" height="40" viewBox="0 0 40 40" fill="none" xmlns="http://www.w3.org/2000/svg">
<path d="M3.33398 11.6666C3.33398 10.7825 3.68517 9.93468 4.31029 9.30956C4.93542 8.68444 5.78326 8.33325 6.66732 8.33325H33.334C34.218 8.33325 35.0659 8.68444 35.691 9.30956C36.3161 9.93468 36.6673 10.7825 36.6673 11.6666V28.3333C36.6673 29.2173 36.3161 30.0652 35.691 30.6903C35.0659 31.3154 34.218 31.6666 33.334 31.6666H6.66732C5.78326 31.6666 4.93542 31.3154 4.31029 30.6903C3.68517 30.0652 3.33398 29.2173 3.33398 28.3333V11.6666Z" stroke="black" stroke-width="2" stroke-linecap="round" stroke-linejoin="round"/>
<path d="M20 25C22.7614 25 25 22.7614 25 20C25 17.2386 22.7614 15 20 15C17.2386 15 15 17.2386 15 20C15 22.7614 17.2386 25 20 25Z" stroke="black" stroke-width="2" stroke-linecap="round" stroke-linejoin="round"/>
<path d="M3.33398 14.9999C5.10209 14.9999 6.79779 14.2975 8.04803 13.0473C9.29827 11.7971 10.0007 10.1014 10.0007 8.33325" stroke="black" stroke-width="2" stroke-linecap="round" stroke-linejoin="round"/>
<path d="M30 31.6667C30 29.8986 30.7024 28.2029 31.9526 26.9526C33.2029 25.7024 34.8986 25 36.6667 25" stroke="black" stroke-width="2" stroke-linecap="round" stroke-linejoin="round"/>
</svg>
