<svg width="40" height="40" viewBox="0 0 40 40" fill="none" xmlns="http://www.w3.org/2000/svg">
<path d="M27.5 33.9748L24.2625 30.7373L22.5 32.4998L27.5 37.4998L37.5 27.4998L35.7375 25.7373L27.5 33.9748Z" fill="black"/>
<path d="M18.75 34.9999H10V4.99994H20V12.4999C20.002 13.1624 20.266 13.7971 20.7344 14.2655C21.2028 14.7339 21.8376 14.998 22.5 14.9999H30V22.4999H32.5V12.4999C32.5044 12.3357 32.4732 12.1724 32.4084 12.0213C32.3437 11.8703 32.247 11.735 32.125 11.6249L23.375 2.87494C23.265 2.75287 23.1297 2.65612 22.9787 2.59138C22.8276 2.52664 22.6643 2.49544 22.5 2.49994H10C9.33757 2.50192 8.70283 2.76594 8.23442 3.23436C7.76601 3.70277 7.50198 4.3375 7.5 4.99994V34.9999C7.50198 35.6624 7.76601 36.2971 8.23442 36.7655C8.70283 37.2339 9.33757 37.498 10 37.4999H18.75V34.9999ZM22.5 5.49994L29.5 12.4999H22.5V5.49994Z" fill="black"/>
</svg>
