<svg width="40" height="40" viewBox="0 0 40 40" fill="none" xmlns="http://www.w3.org/2000/svg">
<path d="M33.8173 13.8168L26.6673 20.9668L24.5007 18.8168L22.1507 21.1835L26.6507 25.6835L36.184 16.1835L33.8173 13.8168ZM6.66732 13.3335C6.64679 14.2146 6.8052 15.0907 7.13297 15.9088C7.46073 16.7269 7.95104 17.47 8.57424 18.0932C9.19743 18.7164 9.94056 19.2067 10.7587 19.5345C11.5768 19.8623 12.4529 20.0207 13.334 20.0001C14.2151 20.0207 15.0912 19.8623 15.9093 19.5345C16.7274 19.2067 17.4705 18.7164 18.0937 18.0932C18.7169 17.47 19.2072 16.7269 19.535 15.9088C19.8628 15.0907 20.0212 14.2146 20.0007 13.3335C20.0212 12.4524 19.8628 11.5763 19.535 10.7582C19.2072 9.94005 18.7169 9.19692 18.0937 8.57373C17.4705 7.95053 16.7274 7.46022 15.9093 7.13246C15.0912 6.80469 14.2151 6.64628 13.334 6.66681C12.4529 6.64628 11.5768 6.80469 10.7587 7.13246C9.94056 7.46022 9.19743 7.95053 8.57424 8.57373C7.95104 9.19692 7.46073 9.94005 7.13297 10.7582C6.8052 11.5763 6.64679 12.4524 6.66732 13.3335ZM16.6673 13.3335C16.6888 13.7769 16.6172 14.2199 16.4573 14.634C16.2973 15.0481 16.0526 15.4242 15.7387 15.7381C15.4247 16.0521 15.0486 16.2968 14.6345 16.4568C14.2204 16.6167 13.7774 16.6882 13.334 16.6668C12.8906 16.6882 12.4476 16.6167 12.0334 16.4568C11.6193 16.2968 11.2432 16.0521 10.9293 15.7381C10.6154 15.4242 10.3706 15.0481 10.2107 14.634C10.0508 14.2199 9.97921 13.7769 10.0007 13.3335C9.97921 12.8901 10.0508 12.4471 10.2107 12.0329C10.3706 11.6188 10.6154 11.2427 10.9293 10.9288C11.2432 10.6149 11.6193 10.3701 12.0334 10.2102C12.4476 10.0502 12.8906 9.9787 13.334 10.0001C13.7774 9.9787 14.2204 10.0502 14.6345 10.2102C15.0486 10.3701 15.4247 10.6149 15.7387 10.9288C16.0526 11.2427 16.2973 11.6188 16.4573 12.0329C16.6172 12.4471 16.6888 12.8901 16.6673 13.3335ZM6.66732 30.0001C6.66732 28.6741 7.1941 27.4023 8.13178 26.4646C9.06947 25.5269 10.3412 25.0001 11.6673 25.0001H15.0007C16.3267 25.0001 17.5985 25.5269 18.5362 26.4646C19.4739 27.4023 20.0007 28.6741 20.0007 30.0001V31.6668H23.334V30.0001C23.334 28.9058 23.1184 27.8222 22.6996 26.8111C22.2809 25.8001 21.667 24.8814 20.8932 24.1076C20.1194 23.3338 19.2007 22.7199 18.1897 22.3011C17.1786 21.8824 16.095 21.6668 15.0007 21.6668H11.6673C9.45718 21.6668 7.33756 22.5448 5.77476 24.1076C4.21196 25.6704 3.33398 27.79 3.33398 30.0001V31.6668H6.66732V30.0001Z" fill="black"/>
</svg>
