<svg width="24" height="25" viewBox="0 0 24 25" fill="none" xmlns="http://www.w3.org/2000/svg">
<path d="M21.75 4.25H2.25C1.83516 4.25 1.5 4.58516 1.5 5V20C1.5 20.4148 1.83516 20.75 2.25 20.75H21.75C22.1648 20.75 22.5 20.4148 22.5 20V5C22.5 4.58516 22.1648 4.25 21.75 4.25ZM19.8563 6.80234L12.4617 12.5563C12.2789 12.6992 12.0234 12.6992 11.8406 12.5563L4.44375 6.80234C4.41587 6.78082 4.39541 6.75112 4.38526 6.71739C4.37511 6.68367 4.37576 6.64761 4.38713 6.61427C4.3985 6.58094 4.42002 6.552 4.44867 6.5315C4.47731 6.51101 4.51165 6.49999 4.54688 6.5H19.7531C19.7883 6.49999 19.8227 6.51101 19.8513 6.5315C19.88 6.552 19.9015 6.58094 19.9129 6.61427C19.9242 6.64761 19.9249 6.68367 19.9147 6.71739C19.9046 6.75112 19.8841 6.78082 19.8563 6.80234Z" fill="#9F2727"/>
</svg>
