<svg width="24" height="25" viewBox="0 0 24 25" fill="none" xmlns="http://www.w3.org/2000/svg">
<path d="M20.487 17.64L16.422 13.944C16.2299 13.7693 15.9774 13.6762 15.7178 13.6842C15.4583 13.6922 15.212 13.8008 15.031 13.987L12.638 16.448C12.062 16.338 10.904 15.977 9.71204 14.788C8.52004 13.595 8.15904 12.434 8.05204 11.862L10.511 9.468C10.6975 9.28712 10.8062 9.04082 10.8142 8.7812C10.8222 8.52159 10.7289 8.26904 10.554 8.07699L6.85904 4.01299C6.68408 3.82035 6.44092 3.7035 6.18119 3.68725C5.92146 3.67101 5.66564 3.75665 5.46804 3.92599L3.29804 5.78699C3.12515 5.96051 3.02196 6.19145 3.00804 6.43599C2.99304 6.68599 2.70704 12.608 7.29904 17.202C11.305 21.207 16.323 21.5 17.705 21.5C17.907 21.5 18.031 21.494 18.064 21.492C18.3086 21.4783 18.5394 21.3747 18.712 21.201L20.572 19.03C20.7421 18.833 20.8283 18.5774 20.8124 18.3177C20.7966 18.058 20.6798 17.8148 20.487 17.64Z" fill="#9F2727"/>
</svg>
