<svg width="24" height="14" viewBox="0 0 24 14" fill="none" xmlns="http://www.w3.org/2000/svg">
<path d="M22.3341 13.1717L11.9989 2.87214L1.66374 13.1717C1.47908 13.3561 1.2312 13.4593 0.973069 13.4593C0.714943 13.4593 0.467057 13.3561 0.282401 13.1717C0.192991 13.0821 0.12196 12.9752 0.0734686 12.8573C0.0249771 12.7393 0 12.6126 0 12.4846C0 12.3567 0.0249771 12.23 0.0734686 12.112C0.12196 11.994 0.192991 11.8871 0.282401 11.7976L11.2773 0.838439C11.4703 0.646033 11.7293 0.538349 11.9989 0.538349C12.2686 0.538349 12.5275 0.646033 12.7206 0.838439L23.7155 11.7955C23.8055 11.8851 23.8771 11.9922 23.926 12.1106C23.9748 12.229 24 12.3562 24 12.4846C24 12.6131 23.9748 12.7403 23.926 12.8587C23.8771 12.977 23.8055 13.0842 23.7155 13.1738C23.5308 13.3582 23.2829 13.4614 23.0248 13.4614C22.7667 13.4614 22.5188 13.3582 22.3341 13.1738V13.1717Z" fill="#323232"/>
</svg>
