<svg width="24" height="14" viewBox="0 0 24 14" fill="none" xmlns="http://www.w3.org/2000/svg">
<path d="M22.3341 0.828308L11.9989 11.1279L1.66374 0.828308C1.47908 0.643918 1.2312 0.540688 0.973069 0.540688C0.714943 0.540688 0.467057 0.643918 0.282401 0.828308C0.192991 0.917868 0.12196 1.02476 0.0734686 1.14274C0.0249771 1.26072 0 1.3874 0 1.51537C0 1.64334 0.0249771 1.77002 0.0734686 1.88799C0.12196 2.00597 0.192991 2.11287 0.282401 2.20243L11.2773 13.1616C11.4703 13.354 11.7293 13.4617 11.9989 13.4617C12.2686 13.4617 12.5275 13.354 12.7206 13.1616L23.7155 2.20454C23.8055 2.11492 23.8771 2.00776 23.926 1.88939C23.9748 1.77102 24 1.64385 24 1.51537C24 1.38689 23.9748 1.25971 23.926 1.14135C23.8771 1.02298 23.8055 0.91582 23.7155 0.826194C23.5308 0.641803 23.2829 0.538574 23.0248 0.538574C22.7667 0.538574 22.5188 0.641803 22.3341 0.826194V0.828308Z" fill="#323232"/>
</svg>
