<svg width="16" height="17" viewBox="0 0 16 17" fill="none" xmlns="http://www.w3.org/2000/svg">
<path d="M13.7047 4.22969L12.0406 2.56719C11.8375 2.36406 11.5656 2.25 11.2781 2.25C10.9906 2.25 10.7188 2.3625 10.5156 2.56719L8.72344 4.35625C8.52031 4.55938 8.40625 4.83281 8.40625 5.12031C8.40625 5.40938 8.51875 5.67969 8.72344 5.88438L10.1234 7.28594C9.80451 8.02904 9.34626 8.70421 8.77344 9.275C8.2 9.85156 7.52969 10.3063 6.78594 10.6281L5.38594 9.22656C5.18281 9.02344 4.91094 8.90938 4.62344 8.90938C4.48163 8.90885 4.34114 8.93663 4.21021 8.9911C4.07928 9.04557 3.96054 9.12562 3.86094 9.22656L2.06719 11.0156C1.86406 11.2188 1.75 11.4922 1.75 11.7797C1.75 12.0688 1.8625 12.3391 2.06719 12.5437L3.72969 14.2063C4.07656 14.5531 4.55469 14.7516 5.04531 14.7516C5.14687 14.7516 5.24531 14.7437 5.34531 14.7266C7.41406 14.3859 9.46719 13.2844 11.125 11.6281C12.7812 9.96875 13.8813 7.91563 14.225 5.84531C14.3234 5.25781 14.1266 4.65313 13.7047 4.22969ZM13.1172 5.65938C12.8125 7.50156 11.8219 9.33906 10.3297 10.8313C8.8375 12.3234 7.00156 13.3141 5.15938 13.6187C4.92813 13.6578 4.69062 13.5797 4.52187 13.4125L2.88906 11.7797L4.62031 10.0469L6.49219 11.9219L6.50625 11.9359L6.84375 11.8109C7.86707 11.4347 8.79635 10.8404 9.56717 10.0693C10.338 9.29825 10.9319 8.36877 11.3078 7.34531L11.4328 7.00781L9.54531 5.12187L11.2766 3.38906L12.9094 5.02187C13.0781 5.19062 13.1562 5.42813 13.1172 5.65938Z" fill="#F8F8F8"/>
</svg>
