<svg width="262" height="36" viewBox="0 0 262 36" fill="none" xmlns="http://www.w3.org/2000/svg">
<g clip-path="url(#clip0_185_11855)">
<path d="M34.9248 0.679199H35.9721L36.9505 9.46092L37.9863 18.6685C38.3086 21.5305 38.5081 23.2569 38.5848 23.8477C38.6615 24.4386 38.7689 25.2672 38.9071 26.3338L40.0005 34.6781L39.0337 34.6091C38.8233 34.6325 38.611 34.6325 38.4006 34.6091H37.6755H36.8699H36.2138L35.3391 34.6781C35.3223 32.9974 35.2186 31.3186 35.0284 29.6485C34.9056 28.6127 34.7905 27.5691 34.6831 26.5179L34.004 19.7964L33.4286 14.0417C33.1984 11.7398 32.995 10.0824 32.8186 9.06959L29.8606 14.3639C28.8938 16.1134 28.0613 17.648 27.3631 18.9677L25.9014 21.707L24.4742 24.3887C24.1212 25.0716 23.6609 25.9847 23.0931 27.1279C21.8424 29.6984 20.7413 32.0348 19.7899 34.1372H19.2374L16.5212 28.5091C15.4776 26.3299 14.3574 24.147 13.1604 21.9602L9.70757 15.3653L6.47341 9.03507C6.32762 10.3241 6.19335 11.5365 6.07058 12.6721C5.94781 13.8077 5.79819 15.0468 5.62171 16.3896L4.79303 23.7787L4.20605 30.4311C4.20605 30.9452 4.17919 31.6818 4.12548 32.641C4.07177 33.6001 4.04491 34.2791 4.04491 34.6781L3.31982 34.6091C3.15952 34.6322 2.99672 34.6322 2.83642 34.6091H2.30698L1.65095 34.5515H1.16755L0.5 34.6781L2.22642 23.2492L4.24057 9.10412C4.73932 5.35204 5.08844 2.54373 5.28793 0.679199H6.57699L10.1795 7.79204C10.9468 9.26525 11.9481 11.1835 13.1834 13.5468C14.6259 16.263 15.9303 18.6455 17.0966 20.6941L19.2949 24.5153C19.4407 24.7762 19.8858 25.5128 20.63 26.7251L24.6699 19.4166L28.5025 12.4073L30.977 7.80355L34.9248 0.679199Z" fill="#027A35"/>
<path d="M71.4096 0.679199L60.1303 11.5326L55.9064 15.8026L60.0958 20.533L64.9528 26L68.0143 29.4528L72.0426 34.4249V34.6666L70.8917 34.5976H70.5694C70.4239 34.6091 70.2776 34.6091 70.1321 34.5976H69.2804H67.9913L66.4836 34.6896C65.4108 33.1275 64.2583 31.6216 63.0307 30.1779L52.1888 17.5175C51.9909 17.3533 51.7438 17.2602 51.4867 17.2528C51.4571 17.2413 51.4243 17.2413 51.3947 17.2528L51.3371 17.3104V34.6781L50.4394 34.6091C50.2406 34.6338 50.0396 34.6338 49.8409 34.6091H49.1388H48.149L46.998 34.7012V0.679199L48.2641 0.782784H49.1848H50.0481L51.3716 0.679199V16.0443C51.4421 16.0969 51.5258 16.1288 51.6133 16.1364C51.9763 16.0985 52.3222 15.9633 52.6147 15.7451C52.9062 15.5226 53.2592 15.2195 53.6735 14.8358C54.0879 14.4522 54.6135 13.9534 55.2503 13.3396L67.4849 0.679199L68.6358 0.771275H69.4875H70.2587L71.4096 0.679199Z" fill="#027A35"/>
<path d="M118.069 0.679199C114.663 4.35637 110.348 7.07158 105.559 8.55167C106.219 13.1509 106.466 17.8002 106.295 22.4436C106.295 22.4436 116.424 12.2807 117.574 11.1413C117.678 7.3777 118.035 1.66901 118.035 1.66901C118.035 1.19712 118.035 0.690709 118.035 0.690709" fill="#E3E3E2"/>
<path d="M117.552 11.1411C116.401 12.2921 107.769 20.8896 106.295 22.3974C106.17 26.5224 105.785 30.6356 105.145 34.7125H118.081C118.081 34.2636 118.081 29.6368 118.081 29.6368C118.081 29.234 117.943 26.5638 117.943 26.5638C117.701 23.8476 117.621 16.4009 117.54 13.3279C117.54 12.7639 117.54 12.0043 117.54 11.1411" fill="#E2241D"/>
<path d="M90.6198 13.0981L78.8802 24.8493C78.8802 25.5284 78.8111 26.1269 78.7651 26.5872C78.7651 26.5872 78.627 29.2689 78.627 29.6603C78.627 29.6603 78.627 34.264 78.627 34.7474H91.506C90.4169 27.597 90.1197 20.3483 90.6198 13.1327" fill="#E3E3E2"/>
<path d="M90.6198 13.0979C90.7464 11.5787 90.9076 10.0594 91.1493 8.49412C86.3612 7.03415 82.0423 4.33875 78.627 0.679199C78.627 0.679199 78.627 1.18562 78.627 1.66901C78.627 1.66901 79.1909 10.2551 79.1219 13.3166C79.0528 15.8717 78.9953 21.4423 78.8341 24.826L90.6198 13.0979Z" fill="#027A35"/>
<path d="M136.979 9.71406L135.483 13.1669L134.136 16.309C133.691 17.3372 133.265 18.3423 132.859 19.3245C131.792 21.8872 130.737 24.5344 129.693 27.266C128.711 29.8671 127.814 32.3992 127 34.8622L126.125 34.7817H125.377H124.882H124.434L123.789 34.8507L127.484 26.7941C128.427 24.7147 129.417 22.4857 130.453 20.1071C131.335 18.1045 132.283 15.9215 133.296 13.5582C135.061 9.39947 136.212 6.5106 136.749 4.8916H138.797L142.308 13.4546L147.683 26.2647C149.693 30.9912 150.955 33.8379 151.469 34.8047L150.572 34.7241H150.123H149.973H149.375H148.696H148.097L147.245 34.7932L145.611 30.6037L142.285 22.1903L139.235 14.4905L137.37 9.77161H136.99L136.979 9.71406Z" fill="#E2241D"/>
<path d="M158.744 29.1535L161.713 25.8388L164.993 21.8795C166.19 20.3986 167.303 18.9906 168.331 17.6555C168.776 17.0877 169.259 16.4394 169.781 15.7104L171.059 13.938H172.808V34.8507L171.853 34.7701H171.059H170.46H169.965L169.298 34.8392V19.6237L166.501 22.8233L163.048 26.9897L159.653 31.2367L158.341 32.9861C157.919 33.5539 157.481 34.1716 157.029 34.8392H155.279V13.938C155.856 14.0427 156.443 14.0852 157.029 14.0646C157.615 14.0771 158.2 14.0347 158.778 13.938V29.1535H158.744Z" fill="#E2241D"/>
<path d="M192.373 19.0253C192.384 19.587 192.28 20.1449 192.069 20.6653C191.857 21.1857 191.542 21.6576 191.142 22.0523C190.274 22.8996 189.156 23.4444 187.954 23.606C189.445 23.7425 190.866 24.3015 192.051 25.2174C192.603 25.6892 193.038 26.2835 193.319 26.9529C193.601 27.6224 193.723 28.3484 193.674 29.073C193.69 29.9943 193.453 30.9024 192.988 31.698C192.523 32.4936 191.849 33.1463 191.038 33.5847C189.185 34.6858 187.059 35.2441 184.904 35.1961C182.519 35.333 180.14 34.8492 177.998 33.7919C178.355 32.7462 178.654 31.682 178.896 30.6038H179.241C179.757 31.635 180.564 32.4921 181.563 33.069C182.561 33.646 183.707 33.9173 184.858 33.8495C185.722 33.8634 186.577 33.6617 187.344 33.2625C188.058 32.8861 188.655 32.3207 189.07 31.6281C189.496 30.9115 189.715 30.0908 189.703 29.2572C189.745 28.6172 189.644 27.976 189.41 27.3792C189.175 26.7824 188.811 26.2447 188.345 25.8043C187.345 24.9493 186.057 24.5088 184.743 24.5728L181.727 24.6534V22.8234L184.743 22.904C185.248 22.9158 185.749 22.8192 186.214 22.6207C186.679 22.4221 187.095 22.1263 187.436 21.753C188.137 21.0029 188.514 20.0058 188.483 18.9792C188.494 18.2604 188.32 17.551 187.977 16.919C187.649 16.3225 187.158 15.8315 186.561 15.5034C185.941 15.162 185.243 14.9875 184.535 14.997C183.568 14.9291 182.605 15.1806 181.794 15.7129C180.983 16.2451 180.369 17.0287 180.047 17.9434H179.667C179.406 16.8761 179.056 15.8328 178.62 14.8243C179.886 14.057 182 13.6734 184.961 13.6734C185.902 13.671 186.841 13.7752 187.758 13.9841C188.575 14.1711 189.354 14.4982 190.06 14.9509C190.723 15.3786 191.279 15.9536 191.683 16.6313C192.096 17.3521 192.307 18.1714 192.293 19.0023" fill="#E2241D"/>
<path d="M202.468 29.1535L205.438 25.8388L208.718 21.8795C209.915 20.3986 211.027 18.9906 212.056 17.6555C212.501 17.0877 212.984 16.4394 213.506 15.7104L214.783 13.938H216.533V34.8507L215.578 34.7701H214.783H214.185H213.69L213.022 34.8392V19.6237L210.226 22.8233L206.773 26.9897L203.378 31.2367L202.065 32.9861C201.643 33.5539 201.206 34.1716 200.753 34.8392H199.004V13.938C199.581 14.0427 200.167 14.0852 200.753 14.0646C201.339 14.0771 201.925 14.0347 202.503 13.938V29.1535H202.468Z" fill="#E2241D"/>
<path d="M232.059 22.9502L234.661 22.8697L237.354 22.7431V13.9498L238.332 14.0304H239.103C239.689 14.0265 240.273 13.9842 240.853 13.9038V34.851L239.897 34.7589H239.103C238.518 34.7593 237.933 34.8016 237.354 34.8856V24.6997L235.202 24.5731H228.929L226.8 24.6536V34.8395L225.821 34.7589H225.05H224.521H224.049L223.301 34.8395V13.9498C223.88 14.0396 224.465 14.082 225.05 14.0765C225.636 14.0755 226.22 14.0332 226.8 13.9498V22.7431L229.47 22.8697L232.059 22.9502Z" fill="#E2241D"/>
<path d="M251.106 15.9525V34.851L250.404 34.782C250.24 34.8028 250.074 34.8028 249.909 34.782H249.357H248.827H248.356L247.607 34.8625V14.1455H261.511L261.43 15.2965L261.511 16.4474C258.075 16.0309 254.613 15.8655 251.152 15.9525" fill="#E2241D"/>
</g>
<defs>
<clipPath id="clip0_185_11855">
<rect width="261" height="34.5284" fill="white" transform="translate(0.5 0.679199)"/>
</clipPath>
</defs>
</svg>
