<svg width="262" height="50" viewBox="0 0 262 50" fill="none" xmlns="http://www.w3.org/2000/svg">
<g clip-path="url(#clip0_185_11868)">
<path d="M12.6484 27.0076C8.89717 27.0076 5.94706 26.1923 3.79809 24.5617C-0.490406 21.31 0.0279844 14.2316 1.81407 9.75463C4.34005 3.34544 10.4005 0.390617 17.0312 0.390617C21.7721 0.390617 28.6384 1.54993 28.6384 7.66222C28.6384 15.6171 20.1557 16.6162 14.0292 16.6162C12.4472 16.6227 10.866 16.5409 9.29303 16.3712C8.67096 20.2355 11.1498 20.7351 14.4439 20.7822C16.8702 20.7414 19.2774 20.3445 21.5883 19.604C22.2292 19.4297 22.6298 19.326 23.0021 19.9433L24.84 23.7747C25.1181 24.246 24.9013 24.623 24.1897 24.9387C20.6929 26.4892 16.3714 27.0217 12.6437 27.0217L12.6484 27.0076ZM45.1609 5.7913C42.7575 5.7913 40.9195 6.82808 40.4813 9.28336L38.2899 21.1121C39.779 21.3477 41.283 21.4768 42.7905 21.4985C45.2128 21.4985 49.2421 20.834 49.2421 17.62C49.2421 15.0281 45.5238 15.1977 43.7377 15.1977C42.9884 15.1977 42.3946 15.1223 42.5548 14.2269L42.9695 11.8989C43.1533 10.8762 43.9686 10.8103 44.8546 10.7349C46.3626 10.6123 48.8792 10.0468 48.8792 8.0675C48.8886 6.23429 46.5229 5.77245 45.1609 5.77245V5.7913ZM31.9655 9.23152C33.1295 2.39349 39.5623 0.282227 45.6887 0.282227C49.6285 0.282227 56.9284 1.27188 57.1169 6.58302C57.2064 9.14199 55.3308 11.2532 53.031 12.1109V12.3513C55.6842 13.1053 57.885 14.7076 57.885 17.6813C57.885 25.099 48.2948 26.9887 42.6067 26.9887C38.5821 26.9887 34.0438 26.6636 30.2925 25.1037C29.5668 24.8021 29.35 24.4156 29.4631 23.6522L31.9655 9.23152ZM65.9531 35.5375C65.8164 36.3386 65.3074 36.3622 64.5911 36.3622H58.6202C57.9651 36.3622 57.4185 36.3386 57.5551 35.5375L63.003 3.92981C63.076 3.57278 63.247 3.2431 63.4966 2.97763C63.7463 2.71215 64.0649 2.52132 64.4168 2.42648C68.3612 0.941995 72.8382 0.48487 77.0278 0.48487C84.2899 0.48487 89.9451 3.19463 89.7519 11.2485C89.5163 21.0178 83.4699 26.9086 73.8986 26.9086C71.7734 26.9231 69.652 26.729 67.5648 26.329L65.9531 35.5375ZM75.3171 6.55004C73.8212 6.54622 72.3304 6.72505 70.8778 7.08256L68.6251 20.3156C70.1371 20.6807 71.6881 20.8596 73.2435 20.8482C78.6159 20.8482 81.1796 16.6728 81.1796 11.6868C81.1796 7.93555 78.8139 6.55004 75.3171 6.55004ZM108.004 6.35682C104.38 6.35682 102.075 8.8875 101.194 12.224C100.139 16.2251 100.336 21.0461 105.577 21.0461C110.817 21.0461 112.801 15.6831 112.801 11.2061C112.801 8.07693 111.152 6.35682 108.004 6.35682ZM108.772 0.395331C115.728 0.395331 121.496 3.34073 121.496 11.0129C121.496 21.4844 114.427 27.1113 104.62 27.0076C97.9472 26.9369 91.948 24.5287 91.948 16.9744C91.9074 14.5602 92.3297 12.1607 93.1921 9.90543C95.8265 3.34544 102.099 0.390617 108.777 0.390617L108.772 0.395331ZM137.915 6.21072C136.627 6.18612 135.34 6.2665 134.065 6.45107L130.766 25.5985C130.625 26.4232 130.167 26.4704 129.404 26.4704H123.527C122.872 26.4704 122.26 26.4044 122.401 25.5985L126.016 4.80164C126.43 2.41234 127.877 1.25774 130.219 0.876018C132.966 0.502625 135.738 0.345055 138.509 0.404754C143.617 0.404754 150.762 1.04567 152.128 7.12026C152.478 9.05447 152.457 11.0375 152.067 12.9639L149.937 25.6174C149.796 26.4468 149.338 26.4892 148.575 26.4892H142.651C141.991 26.4892 141.388 26.4232 141.525 25.6174L143.778 12.5351C144.037 11.0412 144.216 9.07129 143.189 7.82245C141.996 6.32383 139.63 6.21072 137.915 6.21072ZM203.162 6.35682C199.636 6.35682 197.172 8.58589 196.027 11.8093C194.184 16.9932 195.032 21.1969 201.328 21.0932C202.708 21.0597 204.079 20.8652 205.414 20.5136C206.116 15.9188 206.856 11.2909 207.841 6.74797C206.628 6.54083 205.401 6.41957 204.17 6.38509C203.774 6.36153 203.435 6.35682 203.162 6.35682ZM203.562 0.442456C207.584 0.45429 211.594 0.893459 215.523 1.75257C216.517 1.96935 216.828 2.3228 216.649 3.30303C215.348 10.3154 214.128 17.3702 213.157 24.4392C213.13 24.6707 213.03 24.8873 212.87 25.0571C212.71 25.2269 212.5 25.3407 212.271 25.3817C208.183 26.5131 203.958 27.0683 199.717 27.0312C192.648 27.0312 186.634 24.8256 186.634 17.1346C186.601 14.77 186.974 12.4172 187.737 10.1788C190.188 3.26061 196.63 0.442456 203.562 0.442456ZM181.884 24.8586L181.766 25.5561V25.5938C181.615 26.3949 181.182 26.4751 180.414 26.4751H174.556C173.689 26.4751 173.378 26.1593 173.491 25.5043L176.7 6.74325H169.702C168.905 10.1316 168.17 13.5483 167.157 16.8754C165.272 23.0348 161.648 25.9567 155.493 27.4412C154.881 27.5872 154.079 27.6155 153.778 26.8615L152.411 23.3741C152.062 22.4787 152.482 22.1253 153.297 21.8237C156.898 20.49 158.514 18.9631 159.838 15.0139C160.917 11.7999 161.521 7.68107 162.473 3.88739C163.033 1.65832 164.358 1.02682 166.558 1.02682H182.581C184.763 1.02682 185.88 1.67246 185.484 3.97222V4.02877L181.884 24.8586ZM225.415 25.5043C225.264 26.4044 224.844 26.4751 224.001 26.4751H218.209C217.342 26.4751 216.974 26.1546 217.083 25.5043L221.169 1.94107C221.277 1.32372 221.739 0.998548 222.53 0.998548H228.332C229.128 0.998548 229.604 0.998548 229.458 1.94107L228.096 10.2306H238.756L240.17 1.94107C240.274 1.32372 240.764 0.998548 241.584 0.998548H247.39C248.177 0.998548 248.671 0.998548 248.516 1.94107L244.43 25.5043C244.275 26.3997 243.935 26.4751 243.068 26.4751H237.276C236.409 26.4751 236.042 26.1546 236.15 25.5043L237.809 15.7632H227.092L225.415 25.5043ZM16.5552 6.25785C13.2564 6.25785 10.7822 8.20888 10.0989 11.4418C12.2078 11.6154 14.3282 11.5917 16.4327 11.3711C18.1575 11.1731 20.3395 10.7254 20.3395 8.58589C20.3442 6.58302 18.0821 6.25785 16.5552 6.25785Z" fill="#005B95"/>
<path d="M247.461 35.0378C188.666 23.8217 132.84 30.3251 73.2396 48.7327C71.5667 49.2511 71.3546 49.8967 73.513 49.4349C128.486 37.5967 188.176 33.6664 247.249 36.2395C248.441 36.2913 250.166 36.329 250.161 36.0321C250.157 35.7352 249.62 35.4383 247.461 35.0283" fill="#F56920"/>
<path d="M257.286 1.60163C258.024 1.60163 258.746 1.82054 259.359 2.23066C259.973 2.64078 260.452 3.2237 260.734 3.90571C261.017 4.58772 261.09 5.33818 260.946 6.0622C260.802 6.78622 260.447 7.45127 259.925 7.97325C259.403 8.49524 258.738 8.85072 258.014 8.99473C257.29 9.13875 256.539 9.06484 255.857 8.78234C255.175 8.49984 254.592 8.02145 254.182 7.40766C253.772 6.79387 253.553 6.07224 253.553 5.33404C253.555 4.34453 253.948 3.3959 254.648 2.69621C255.348 1.99652 256.296 1.60288 257.286 1.60163ZM257.286 1.13037C256.454 1.13037 255.642 1.37691 254.95 1.83882C254.259 2.30072 253.72 2.95725 253.402 3.72537C253.084 4.49349 253.001 5.33871 253.163 6.15414C253.325 6.96957 253.725 7.71859 254.313 8.30649C254.901 8.89438 255.65 9.29474 256.466 9.45694C257.281 9.61914 258.126 9.5359 258.894 9.21773C259.663 8.89956 260.319 8.36077 260.781 7.66948C261.243 6.97819 261.489 6.16545 261.489 5.33404C261.488 4.21998 261.045 3.15197 260.256 2.36464C259.468 1.57732 258.4 1.13508 257.286 1.13508V1.13037Z" fill="#005B95"/>
<path d="M258.001 5.46583C258.158 5.50939 258.296 5.60184 258.397 5.72973C258.484 5.85801 258.549 5.9997 258.59 6.14916L258.977 7.56295C258.985 7.58414 258.985 7.60774 258.977 7.62893C258.977 7.62893 258.944 7.66192 258.906 7.66192H258.543H258.482C258.482 7.66192 258.444 7.63364 258.435 7.60065L258.081 6.32353C258.05 6.20444 257.999 6.09138 257.93 5.98893C257.876 5.90821 257.805 5.8393 257.723 5.78629C257.642 5.73575 257.553 5.7006 257.459 5.68261C257.357 5.66244 257.253 5.65297 257.148 5.65433H256.116V7.58651C256.121 7.59768 256.123 7.6097 256.123 7.62186C256.123 7.63401 256.121 7.64604 256.116 7.6572C256.093 7.66476 256.068 7.66476 256.045 7.6572H255.711C255.688 7.66444 255.663 7.66444 255.64 7.6572C255.635 7.64604 255.633 7.63401 255.633 7.62186C255.633 7.6097 255.635 7.59768 255.64 7.58651V3.34514C255.634 3.26278 255.657 3.18095 255.706 3.11422C255.738 3.08423 255.776 3.06154 255.817 3.0477C255.859 3.03387 255.903 3.02923 255.946 3.03411H257.44C257.633 3.03085 257.825 3.06279 258.006 3.12836C258.166 3.18758 258.312 3.27901 258.435 3.39698C258.553 3.51148 258.646 3.64955 258.708 3.80227C258.772 3.9643 258.804 4.1371 258.802 4.31123C258.806 4.55956 258.737 4.80358 258.604 5.01341C258.47 5.22067 258.269 5.37544 258.034 5.45169L258.001 5.46583ZM258.251 4.33008C258.251 4.22458 258.236 4.11964 258.204 4.01905C258.172 3.91922 258.119 3.82752 258.048 3.75043C257.964 3.67351 257.865 3.61564 257.756 3.58077C257.624 3.53035 257.483 3.50633 257.341 3.51008H256.125V5.18778H257.304C257.432 5.19927 257.561 5.18428 257.684 5.14375C257.806 5.10322 257.919 5.03801 258.015 4.95215C258.094 4.86969 258.156 4.77207 258.197 4.66518C258.237 4.55828 258.256 4.44429 258.251 4.33008Z" fill="#005B95"/>
</g>
<defs>
<clipPath id="clip0_185_11868">
<rect width="261" height="49.2942" fill="white" transform="translate(0.5 0.296387)"/>
</clipPath>
</defs>
</svg>
