<svg width="41" height="40" viewBox="0 0 41 40" fill="none" xmlns="http://www.w3.org/2000/svg">
<g clip-path="url(#clip0_301_8162)">
<path fill-rule="evenodd" clip-rule="evenodd" d="M20.5 2.5C15.8587 2.5 11.4075 4.34374 8.12563 7.62563C4.84375 10.9075 3 15.3587 3 20C3 24.6413 4.84375 29.0925 8.12563 32.3744C11.4075 35.6563 15.8587 37.5 20.5 37.5C25.1413 37.5 29.5925 35.6563 32.8744 32.3744C36.1563 29.0925 38 24.6413 38 20C38 15.3587 36.1563 10.9075 32.8744 7.62563C29.5925 4.34374 25.1413 2.5 20.5 2.5ZM20.5 40C15.1957 40 10.1086 37.8929 6.35786 34.1421C2.60714 30.3914 0.5 25.3043 0.5 20C0.5 14.6957 2.60714 9.60859 6.35786 5.85786C10.1086 2.10714 15.1957 0 20.5 0C25.8043 0 30.8914 2.10714 34.6421 5.85786C38.3929 9.60859 40.5 14.6957 40.5 20C40.5 25.3043 38.3929 30.3914 34.6421 34.1421C30.8914 37.8929 25.8043 40 20.5 40ZM29.25 21.25C29.5815 21.25 29.8995 21.1183 30.1339 20.8839C30.3683 20.6495 30.5 20.3315 30.5 20C30.5 19.6685 30.3683 19.3505 30.1339 19.1161C29.8995 18.8817 29.5815 18.75 29.25 18.75H14.7675L20.135 13.385C20.3697 13.1503 20.5016 12.8319 20.5016 12.5C20.5016 12.1681 20.3697 11.8497 20.135 11.615C19.9003 11.3803 19.5819 11.2484 19.25 11.2484C18.9181 11.2484 18.5997 11.3803 18.365 11.615L10.865 19.115C10.7486 19.2311 10.6562 19.3691 10.5932 19.5209C10.5302 19.6728 10.4978 19.8356 10.4978 20C10.4978 20.1644 10.5302 20.3272 10.5932 20.4791C10.6562 20.6309 10.7486 20.7689 10.865 20.885L18.365 28.385C18.5997 28.6197 18.9181 28.7516 19.25 28.7516C19.5819 28.7516 19.9003 28.6197 20.135 28.385C20.3697 28.1503 20.5016 27.8319 20.5016 27.5C20.5016 27.1681 20.3697 26.8497 20.135 26.615L14.7675 21.25H29.25Z" fill="black"/>
</g>
<defs>
<clipPath id="clip0_301_8162">
<rect width="40" height="40" fill="white" transform="translate(40.5) rotate(90)"/>
</clipPath>
</defs>
</svg>
