<svg width="41" height="40" viewBox="0 0 41 40" fill="none" xmlns="http://www.w3.org/2000/svg">
<g clip-path="url(#clip0_301_8165)">
<path fill-rule="evenodd" clip-rule="evenodd" d="M20.5 2.5C25.1413 2.5 29.5925 4.34374 32.8744 7.62563C36.1563 10.9075 38 15.3587 38 20C38 24.6413 36.1563 29.0925 32.8744 32.3744C29.5925 35.6563 25.1413 37.5 20.5 37.5C15.8587 37.5 11.4075 35.6563 8.12563 32.3744C4.84374 29.0925 3 24.6413 3 20C3 15.3587 4.84374 10.9075 8.12563 7.62563C11.4075 4.34374 15.8587 2.5 20.5 2.5ZM20.5 40C25.8043 40 30.8914 37.8929 34.6421 34.1421C38.3929 30.3914 40.5 25.3043 40.5 20C40.5 14.6957 38.3929 9.60859 34.6421 5.85786C30.8914 2.10714 25.8043 0 20.5 0C15.1957 0 10.1086 2.10714 6.35786 5.85786C2.60714 9.60859 0.5 14.6957 0.5 20C0.5 25.3043 2.60714 30.3914 6.35786 34.1421C10.1086 37.8929 15.1957 40 20.5 40ZM11.75 21.25C11.4185 21.25 11.1005 21.1183 10.8661 20.8839C10.6317 20.6495 10.5 20.3315 10.5 20C10.5 19.6685 10.6317 19.3505 10.8661 19.1161C11.1005 18.8817 11.4185 18.75 11.75 18.75H26.2325L20.865 13.385C20.6303 13.1503 20.4984 12.8319 20.4984 12.5C20.4984 12.1681 20.6303 11.8497 20.865 11.615C21.0997 11.3803 21.4181 11.2484 21.75 11.2484C22.0819 11.2484 22.4003 11.3803 22.635 11.615L30.135 19.115C30.2514 19.2311 30.3438 19.3691 30.4068 19.5209C30.4698 19.6728 30.5022 19.8356 30.5022 20C30.5022 20.1644 30.4698 20.3272 30.4068 20.4791C30.3438 20.6309 30.2514 20.7689 30.135 20.885L22.635 28.385C22.4003 28.6197 22.0819 28.7516 21.75 28.7516C21.4181 28.7516 21.0997 28.6197 20.865 28.385C20.6303 28.1503 20.4984 27.8319 20.4984 27.5C20.4984 27.1681 20.6303 26.8497 20.865 26.615L26.2325 21.25H11.75Z" fill="black"/>
</g>
<defs>
<clipPath id="clip0_301_8165">
<rect width="40" height="40" fill="white" transform="matrix(0 1 1 0 0.5 0)"/>
</clipPath>
</defs>
</svg>
