<svg width="41" height="40" viewBox="0 0 41 40" fill="none" xmlns="http://www.w3.org/2000/svg">
<path d="M35.5 31.6667H15.5M5.5 8.33333H12.1667H5.5ZM35.5 8.33333H18.8333H35.5ZM5.5 20H25.5H5.5ZM35.5 20H32.1667H35.5ZM5.5 31.6667H8.83333H5.5Z" stroke="black" stroke-width="2" stroke-linecap="round"/>
<path d="M15.5001 11.6667C17.341 11.6667 18.8334 10.1743 18.8334 8.33333C18.8334 6.49238 17.341 5 15.5001 5C13.6591 5 12.1667 6.49238 12.1667 8.33333C12.1667 10.1743 13.6591 11.6667 15.5001 11.6667Z" stroke="black" stroke-width="2" stroke-linecap="round"/>
<path d="M28.8333 23.3333C30.6743 23.3333 32.1667 21.841 32.1667 20C32.1667 18.1591 30.6743 16.6667 28.8333 16.6667C26.9924 16.6667 25.5 18.1591 25.5 20C25.5 21.841 26.9924 23.3333 28.8333 23.3333Z" stroke="black" stroke-width="2" stroke-linecap="round"/>
<path d="M12.1666 35C14.0075 35 15.4999 33.5076 15.4999 31.6667C15.4999 29.8257 14.0075 28.3333 12.1666 28.3333C10.3256 28.3333 8.83325 29.8257 8.83325 31.6667C8.83325 33.5076 10.3256 35 12.1666 35Z" stroke="black" stroke-width="2" stroke-linecap="round"/>
</svg>
